<?xml version="1.0" encoding="UTF-8"?>
<svg width="385.71" height="376.23" version="1.1" viewBox="0 0 385.71 376.23" xml:space="preserve" xmlns="http://www.w3.org/2000/svg" xmlns:cc="http://creativecommons.org/ns#" xmlns:dc="http://purl.org/dc/elements/1.1/" xmlns:rdf="http://www.w3.org/1999/02/22-rdf-syntax-ns#"><metadata><rdf:RDF><cc:Work rdf:about=""><dc:format>image/svg+xml</dc:format><dc:type rdf:resource="http://purl.org/dc/dcmitype/StillImage"/></cc:Work></rdf:RDF></metadata><path d="m192.86 0a192.86 192.86 0 0 0-192.86 192.86 192.86 192.86 0 0 0 133.04 183c0.80324-2.2357 1.5836-4.4946 2.4043-6.7129-16.051-43.383-28.897-89.962-33.326-144.96-24.599 1.167-60.232 16.575-67.369-11.232 3.6847-35.608 45.25-33.343 67.369-50.525-23.033-39.495-8.1146-109.15 39.299-112.28 22.638 31.62-37.698 48.76-11.229 84.211 36.01-16.598 83.94-23.789 117.9 0 39.13-26.507-29.782-54.853-5.6172-84.211 44.44 2.0328 64.186 70.443 39.299 106.67 15.24 24.056 58.814 19.782 67.363 50.525 0.38632 32.046-39.667 21.431-61.754 16.846-15.835 45.439-19.244 103.29-38.846 144.96 1.091 2.3193 2.149 4.6692 3.1445 7.084a192.86 192.86 0 0 0 134.04-183.37 192.86 192.86 0 0 0-192.86-192.86z" fill-rule="evenodd" stroke-width="2.0858"/></svg>
